<?xml version="1.0" encoding="UTF-8"?>
<svg width="512" height="512" viewBox="0 0 512 512" xmlns="http://www.w3.org/2000/svg">
    <defs>
        <linearGradient id="flame" x1="0%" y1="100%" x2="100%" y2="0%">
            <stop offset="0%" style="stop-color:#3498db;stop-opacity:1" />
            <stop offset="100%" style="stop-color:#2c3e50;stop-opacity:1" />
        </linearGradient>
    </defs>
    <path d="M256 0C176.5 0 112 64.5 112 144c0 37.1 14.2 70.9 37.5 96.4L256 352l106.5-111.6C385.8 214.9 400 181.1 400 144 400 64.5 335.5 0 256 0zm0 224c-44.2 0-80-35.8-80-80s35.8-80 80-80 80 35.8 80 80-35.8 80-80 80zm144 144H112c-8.8 0-16 7.2-16 16v96c0 17.7 14.3 32 32 32h256c17.7 0 32-14.3 32-32v-96c0-8.8-7.2-16-16-16z" fill="url(#flame)"/>
</svg>
